<svg width="16" height="21" viewBox="0 0 16 21" fill="none" xmlns="http://www.w3.org/2000/svg">
<path d="M14.375 9.02373C14.211 8.86076 13.9893 8.76929 13.7581 8.76929C13.5269 8.76929 13.3052 8.86076 13.1412 9.02373L9.99999 12.1212L6.90249 9.02373C6.73854 8.86076 6.51677 8.76929 6.28561 8.76929C6.05445 8.76929 5.83268 8.86076 5.66874 9.02373C5.58672 9.10507 5.52163 9.20185 5.47721 9.30848C5.43278 9.4151 5.40991 9.52947 5.40991 9.64498C5.40991 9.76049 5.43278 9.87486 5.47721 9.98149C5.52163 10.0881 5.58672 10.1849 5.66874 10.2662L9.37874 13.9762C9.46008 14.0582 9.55685 14.1233 9.66348 14.1678C9.77011 14.2122 9.88448 14.2351 9.99999 14.2351C10.1155 14.2351 10.2299 14.2122 10.3365 14.1678C10.4431 14.1233 10.5399 14.0582 10.6212 13.9762L14.375 10.2662C14.457 10.1849 14.5221 10.0881 14.5665 9.98149C14.6109 9.87486 14.6338 9.76049 14.6338 9.64498C14.6338 9.52947 14.6109 9.4151 14.5665 9.30848C14.5221 9.20185 14.457 9.10507 14.375 9.02373Z" fill="black"/>
</svg>
